Patient4_TMGait_0pt2_02_left_20_EMG.mot
version=1
nRows=20
nColumns=33
inDegrees=no
endheader
time	1LAddLong	2LGlutMax	3LGlutMed	4LIliopsoas	5LSemiMemb	6LBicFemLong	7LRecFem	8LVastMed	9LVastLat	10LGasMed	11LTibAnt	12lTibPost	13LPeroneusLong	14LSol	15LExtDigLong	16LFlexDigLong	17RAddLong	18RGlutMax	19RGlutMed	20RIliopsoas	21RSemiMemb	22RBicFemLong	23RRecFem	24RVastMed	25RVastLat	26RGasMed	27RTibAnt	28RTibPost	29RPeroneusLong	30RSol	31RExtDigLong	32RFlexDigLong
45.26	0.006866	0.23712	-0.033112	0.002289	0.009613	0.009155	0.040283	-0.000763	-0.039825	0.001831	-0.026398	0.002899	0.003967	0.09552	-0.01297	0.009766	0.016785	-0.088806	0.10468	-0.032654	-0.087738	0.20783	0.30273	0.35629	-0.059357	-0.012054	-0.052795	-0.010223	0.30151	-0.023499	-0.001831	-0.011597
45.261	0.000763	0.21881	-0.061646	0.011292	0.005188	-0.014191	0.041656	0.002594	-0.032959	-0.013123	0.12299	-0.007935	-0.017242	0.08255	-0.057983	0.013275	0.030518	-0.13336	0.057068	-0.008392	-0.003357	0.18265	0.3038	0.70984	-0.087433	-0.024872	-0.064087	0.000305	0.041046	-0.045471	0.006104	-0.009918
45.262	-0.00351	0.22415	-0.01709	0.015411	0.006866	0.011292	0.04364	0.004272	-0.037842	-0.032349	0.16953	0	-0.020599	0.11108	-0.058289	0.014801	0.027924	-0.1709	-0.18601	0.003204	0.029297	0.22186	0.38223	0.33661	-0.03067	-0.029297	-0.11154	-0.005798	-0.22797	-0.067749	-0.001526	-0.00946
45.263	0.000305	0.23224	-0.04715	0.003967	0.015564	0.009308	0.072937	0.000763	-0.038147	-0.028687	0.083313	0.006256	0.030518	0.081177	0.017853	0.007782	0.048981	-0.1181	0.48187	-0.045166	-0.012665	0.22659	0.29373	-0.22049	0.21057	-0.015717	-0.019531	-0.010071	0.26749	0.036163	-0.001068	-0.004578
45.264	-0.002441	0.19852	-0.037842	0.003204	0.008392	0.000153	0.089722	-0.002899	-0.029297	-0.034332	-0.18234	0.006866	0.096283	0.041962	0.059357	0.019226	0.097961	-0.11978	1.1699	0.061493	-0.032349	0.11978	0.10681	-0.04776	0.30243	0.008087	-0.00412	-0.01236	0.66177	0.17319	-0.001831	-0.003052
45.265	0.007172	0.19226	-0.022278	0.002899	0.009155	-0.012512	0.068054	0.000458	-0.039215	-0.012512	-0.22507	0.000916	0.048523	-0.015564	0.064697	0.010529	0.10895	-0.16968	0.29236	0.014191	-0.064087	0.020752	-0.034027	-0.18906	0.23331	0.009155	-0.036316	-0.003052	0.94055	0.23117	0	-0.012207
45.266	0.006256	0.1915	-0.00946	-0.010223	0.009918	-0.015717	0.083771	0.004883	-0.032349	0.00351	0.028381	0.003204	-0.015869	-0.02533	-0.01709	-0.001984	0.1004	-0.17654	-0.14343	-0.071259	-0.063019	-0.057831	0.10208	-0.66361	0.10376	-0.007935	0.00824	0.000153	-0.021362	0.073395	-0.000916	-0.016174
45.267	0.005035	0.18341	-0.049438	0.012512	0.006104	-0.025787	0.042419	0.00412	-0.032806	-0.011292	0.10162	0.009766	-0.016174	0	0.0354	0.00351	0.016785	-0.10727	-0.53894	-0.027161	-0.055542	0.027008	0.045319	-1.0829	-0.01297	-0.018158	0.036011	0.012054	-0.90439	0.04837	-0.001984	-0.010681
45.268	0.008087	0.15976	-0.11749	0.014191	0.01236	0.003815	0.024567	0.009003	-0.036163	0.009766	0.10651	0.000305	-0.036469	-0.065918	0.058899	-0.003662	-0.018921	-0.088806	-0.16968	0.004883	-0.12299	0.076752	-0.36133	-1.2987	-0.16174	-0.015564	0.032196	0.000763	-0.026245	0.005341	-0.002136	-0.019989
45.269	0.003967	0.18478	-0.1387	-0.002594	0.011597	-0.005035	0.026855	0.01358	-0.030518	0.016937	0.085297	0.005035	-0.051575	-0.06485	0.10895	0.003662	-0.043182	-0.055084	0.11826	-0.047455	-0.030212	0.041199	-0.36331	-0.70648	0.097809	-0.01358	0.039063	-0.002136	-0.052338	0.048523	-0.001526	-0.013123
45.27	0.006256	0.20889	-0.08255	-0.029144	0.010681	-0.00351	0.026245	0.003662	-0.03891	0.005798	0.014801	0.00473	0.02121	0.01297	0.21316	-0.011749	-0.033875	-0.02182	0.39978	0.076141	0.067444	-0.014648	-0.13016	-0.24216	0.27283	-0.010071	0.071106	-0.004578	-0.33188	0.070343	-0.000763	-0.021057
45.271	0.009766	0.21774	0.021667	-0.019226	0.010529	-0.011597	0.018616	0.008698	-0.035706	-0.005188	-0.096283	-0.000763	0.071564	0.042267	0.15137	0.002594	-0.051575	-0.030823	0.39719	0.048676	0.089722	-0.050201	-0.098267	0.12253	0.31723	0.002441	0.067291	-0.009766	-0.25284	0.054321	0.002136	-0.023193
45.272	0.004272	0.20966	0.043488	0.037384	0.011597	0.00351	0.030365	0.010071	-0.032654	0.001831	-0.095367	0.004578	0.058594	0.027161	-0.20645	0.005035	-0.058746	0.028076	0.60989	-0.023041	0.11246	-0.037079	-0.028534	0.19638	0.015869	0.00473	0.096893	-0.00412	-1.0605	-0.082092	-0.002136	-0.010529
45.273	-0.001678	0.19104	0.022736	0.039673	0.010223	0.016174	0.052338	0.004425	-0.035553	-0.016022	-0.090332	0.003204	0.066376	-0.007629	0.031891	0.00351	-0.042267	0.018158	0.031586	0.011444	0.088196	-0.074921	-0.018768	0.21561	-0.21683	0.015564	0.059509	-0.005341	-1.5721	-0.1619	-0.000153	-0.01358
45.274	0.009918	0.21805	-0.029755	0.010223	0.007935	0.015869	0.014191	0.009155	-0.016479	-0.012207	-0.096741	-0.002441	0.074005	-0.06134	-0.000916	0.011292	-0.001526	-0.0177	0.001831	0.043488	0.11795	-0.090332	0.034332	0.22171	-0.37994	-0.000153	0.054626	0.000458	-0.82794	-0.1767	0.011444	-0.012207
45.275	0.001068	0.23132	-0.045471	0.00885	0.01297	-0.001221	0.00824	0.002289	-0.018463	-0.017853	-0.093994	0.005951	0.063019	-0.03891	-0.20325	0.003204	0.030365	-0.016479	0.099335	-0.063629	0.13245	-0.13199	0.26779	0.092163	-0.27741	-0.004883	0.045929	-0.00351	-0.78171	-0.054321	-0.00061	-0.009003
45.276	0.008392	0.26215	-0.027924	0.017242	0.007477	-0.018616	-0.035095	0.011139	-0.00824	0.007477	-0.036316	0.00061	0.032806	-0.061188	-0.2945	-0.002747	0.021515	-0.036316	-0.20752	-0.090027	0.10284	-0.11841	0.30167	-0.070496	-0.06958	-0.006866	0.067291	-0.01236	0.068817	0.051575	0.001526	-0.015106
45.277	0.011444	0.26215	-0.024719	0.019684	0.018921	-0.018158	-0.023346	0.01297	0.002747	0.001068	0.014801	0.000458	0.014191	0.001221	-0.1622	0.003204	0.01297	0.08667	-0.10178	-0.04776	-0.17731	-0.037994	0.32013	-0.059357	0.027618	-0.00473	0.064545	-0.007782	0.78018	-0.027313	-0.002136	-0.007935
45.278	0.005188	0.29221	-0.041046	0.021973	0.011902	-0.018005	-0.040436	0.008545	0.019379	0.017548	0.033569	0.001831	-0.003204	0.018921	0.079041	0.014648	0.06073	0.041962	0.44846	-0.003357	-0.19943	-0.017853	0.33341	-0.4921	0.020752	-0.005493	-0.007019	-0.001831	1.0333	-0.10849	-0.000153	-0.00885
45.279	0.007324	0.28427	-0.049286	0.020142	0.018005	-0.027161	-0.077972	0.01297	0.039063	0.027924	0.00061	0.005798	-0.013733	0.028687	-0.16907	0.005798	0.086365	-0.041046	0.087433	0.15472	-0.042114	-0.020142	0.16205	-0.67383	0.054626	-0.012817	-0.005798	-0.000305	0.67551	-0.16464	-0.007324	-0.00351
